<svg xmlns="http://www.w3.org/2000/svg" version="1.1" xmlns:xlink="http://www.w3.org/1999/xlink" xmlns:svgjs="http://svgjs.dev/svgjs" width="1000" height="1000" viewBox="0 0 1000 1000"><rect width="1000" height="1000" fill="#ffffff"></rect><g transform="matrix(0.7,0,0,0.7,149.57575757575756,282.1265587044535)"><svg viewBox="0 0 396 247" data-background-color="#ffffff" preserveAspectRatio="xMidYMid meet" height="623" width="1000" xmlns="http://www.w3.org/2000/svg" xmlns:xlink="http://www.w3.org/1999/xlink"><g id="tight-bounds" transform="matrix(1,0,0,1,0.2400000000000091,-0.09999999999999432)"><svg viewBox="0 0 395.52 247.2" height="247.2" width="395.52"><g><svg></svg></g><g><svg viewBox="0 0 395.52 247.2" height="247.2" width="395.52"><g transform="matrix(1,0,0,1,75.54432,61.726149874646175)"><svg viewBox="0 0 244.43135999999998 123.74770025070764" height="123.74770025070764" width="244.43135999999998"><g><svg viewBox="0 0 244.43135999999998 123.74770025070764" height="123.74770025070764" width="244.43135999999998"><g><svg viewBox="0 0 244.43135999999998 123.74770025070764" height="123.74770025070764" width="244.43135999999998"><g><svg viewBox="0 0 244.43135999999998 123.74770025070764" height="123.74770025070764" width="244.43135999999998"><g><svg viewBox="0 0 244.43135999999998 123.74770025070764" height="123.74770025070764" width="244.43135999999998"><g><svg viewBox="0 0 244.43135999999998 123.74770025070764" height="123.74770025070764" width="244.43135999999998"><g transform="matrix(1,0,0,1,0,0)"><svg width="244.43135999999998" viewBox="3.9100000858306885 -30.489999771118164 60.369998931884766 30.559999465942383" height="123.74770025070764" data-palette-color="#ff8300"><path d="M5.66 0.07Q4.74 0.07 4.32-0.16 3.91-0.39 3.91-0.88L3.91-0.88 3.91-29.52Q3.91-30.49 5.66-30.49L5.66-30.49 7.2-30.49Q8.64-30.49 9.03-29.69L9.03-29.69 17.24-15.45 18.36-12.72 19.48-15.21 27.71-29.69Q28.13-30.49 29.52-30.49L29.52-30.49 30.96-30.49Q32.69-30.49 32.69-29.52L32.69-29.52 32.69-0.88Q32.69 0.07 30.96 0.07L30.96 0.07 30.66 0.07Q29.74 0.07 29.32-0.16 28.91-0.39 28.91-0.88L28.91-0.88 28.91-24.24 28.83-24.05 20.19-9.03Q20.02-8.74 19.8-8.61 19.58-8.47 19.24-8.47L19.24-8.47 17.5-8.47Q16.85-8.47 16.53-9.03L16.53-9.03 7.69-24.49 7.69-0.88Q7.69 0.07 5.96 0.07L5.96 0.07 5.66 0.07ZM42.09 0Q41.4 0 41.09-0.32 40.77-0.63 40.77-1.29L40.77-1.29 40.77-29.08Q40.77-29.76 41.09-30.07 41.4-30.37 42.09-30.37L42.09-30.37 50.85-30.37Q56.96-30.37 60.62-26.76 64.28-23.14 64.28-15.21L64.28-15.21Q64.28-7.23 60.62-3.61 56.96 0 50.85 0L50.85 0 42.09 0ZM44.6-3.3L50.56-3.3Q54.95-3.3 57.64-6.16 60.32-9.03 60.32-15.21L60.32-15.21Q60.32-19.36 59.06-22.01 57.79-24.66 55.59-25.87 53.39-27.08 50.56-27.08L50.56-27.08 44.6-27.08 44.6-3.3Z" opacity="1" transform="matrix(1,0,0,1,0,0)" fill="#ff8300" class="undefined-text-0" data-fill-palette-color="primary" id="text-0"></path></svg></g></svg></g></svg></g></svg></g></svg></g></svg></g></svg></g><path d="M241.534 55.726L241.534 8.501 11.337 8.501 11.337 238.699 241.534 238.699 241.534 191.474 230.374 191.474 230.374 227.539 22.496 227.539 22.496 19.661 230.374 19.661 230.374 55.726Z" fill="#ff8300" stroke="transparent" data-fill-palette-color="primary"></path></svg></g><defs></defs></svg><rect width="395.52" height="247.2" fill="none" stroke="none" visibility="hidden"></rect></g></svg></g></svg>