<svg xmlns="http://www.w3.org/2000/svg" version="1.1" xmlns:xlink="http://www.w3.org/1999/xlink" xmlns:svgjs="http://svgjs.dev/svgjs" width="1000" height="623" viewBox="0 0 1000 623"><g transform="matrix(1,0,0,1,-0.6060606060605664,0.2522267206477409)"><svg viewBox="0 0 396 247" data-background-color="#ffffff" preserveAspectRatio="xMidYMid meet" height="623" width="1000" xmlns="http://www.w3.org/2000/svg" xmlns:xlink="http://www.w3.org/1999/xlink"><g id="tight-bounds" transform="matrix(1,0,0,1,0.2400000000000091,-0.09999999999999432)"><svg viewBox="0 0 395.52 247.2" height="247.2" width="395.52"><g><svg></svg></g><g><svg viewBox="0 0 395.52 247.2" height="247.2" width="395.52"><g transform="matrix(1,0,0,1,75.54432,80.699191685381)"><svg viewBox="0 0 244.43135999999998 85.801616629238" height="85.801616629238" width="244.43135999999998"><g><svg viewBox="0 0 430.33518151467683 151.05858048" height="85.801616629238" width="244.43135999999998"><g transform="matrix(1,0,0,1,185.90382151467685,1.7283934214397618)"><svg viewBox="0 0 244.43135999999998 147.60179363712047" height="147.60179363712047" width="244.43135999999998"><g><svg viewBox="0 0 244.43135999999998 147.60179363712047" height="147.60179363712047" width="244.43135999999998"><g><svg viewBox="0 0 244.43135999999998 147.60179363712047" height="147.60179363712047" width="244.43135999999998"><g transform="matrix(1,0,0,1,0,0)"><svg width="244.43135999999998" viewBox="3.7 -39.95 66.65472011455998 40.25" height="147.60179363712047" data-palette-color="#ff7300"><path d="M34.65-39.95L34.65-39.95Q36.25-39.95 38.15-39.2L38.15-39.2Q39.9-38.5 39.9-36.55L39.9-36.55 39.9-2.1Q39.9 0.3 36.95 0.3L36.95 0.3Q34 0.3 34-2.1L34-2.1 34-27.8 32.55-27.95 30.55-21.45 24.55-1.45Q24 0.3 21.85 0.25L21.85 0.25Q20.9 0.2 20.2-0.25 19.5-0.7 19.25-1.55L19.25-1.55 15.65-13.2Q14.55-16.65 13.45-20.23 12.35-23.8 11.05-28.15L11.05-28.15 9.6-27.95 9.6-2.1Q9.6 0.3 6.65 0.3L6.65 0.3Q3.7 0.3 3.7-2.1L3.7-2.1 3.7-36.55Q3.7-38.45 5.45-39.2L5.45-39.2Q7.3-39.95 9-39.9L9-39.9Q9.75-39.9 10.55-39.7 11.35-39.5 12.05-39.13 12.75-38.75 13.3-38.18 13.85-37.6 14.15-36.85L14.15-36.85 22-10.1Q22.85-13.05 23.8-16.5 24.75-19.95 25.75-23.5 26.75-27.05 27.73-30.53 28.7-34 29.55-37L29.55-37Q29.85-37.7 30.4-38.25 30.95-38.8 31.65-39.18 32.35-39.55 33.13-39.75 33.9-39.95 34.65-39.95ZM68.45 0.05L50.15 0.05Q48.3 0.05 47.65-0.9 47-1.85 47-3L47-3 47-36.7Q47-37.85 47.65-38.78 48.3-39.7 50.15-39.7L50.15-39.7 67.55-39.7Q69.4-39.7 69.5-37.2L69.5-37.2Q69.6-34.65 67.55-34.65L67.55-34.65 52.9-34.65 52.9-5 68.45-5Q70.3-5 70.35-2.55L70.35-2.55Q70.45 0.05 68.45 0.05L68.45 0.05ZM65.7-20.65L65.7-20.65Q65.7-18.9 64.47-17.7 63.25-16.5 61.5-16.5L61.5-16.5Q59.8-16.5 58.6-17.7 57.4-18.9 57.4-20.65L57.4-20.65Q57.4-22.4 58.6-23.6 59.8-24.8 61.5-24.8L61.5-24.8Q63.25-24.8 64.47-23.6 65.7-22.4 65.7-20.65Z" opacity="1" transform="matrix(1,0,0,1,0,0)" fill="#ff7300" class="undefined-text-0" data-fill-palette-color="primary" id="text-0"></path></svg></g></svg></g></svg></g></svg></g><g><svg viewBox="0 0 151.05858048 151.05858048" height="151.05858048" width="151.05858048"><g><svg xmlns="http://www.w3.org/2000/svg" xmlns:xlink="http://www.w3.org/1999/xlink" version="1.1" x="0" y="0" viewBox="12.2 12.200000000000003 75.6 75.6" enable-background="new 0 0 100 100" xml:space="preserve" height="151.05858048" width="151.05858048" class="icon-icon-0" data-fill-palette-color="accent" id="icon-0"><path d="M87.8 50c0-20.9-16.9-37.8-37.8-37.8S12.2 29.1 12.2 50 29.1 87.8 50 87.8c10.3 0 19.7-4.1 26.5-10.8l0.1 0c0.6-0.6 1.3-1.3 1.9-1.9l-0.1 0C84.2 68.4 87.8 59.6 87.8 50zM50 14.9c19.4 0 35.1 15.8 35.1 35.1 0 9.2-3.5 17.5-9.3 23.8l-13.9-6.6c-0.1 0-0.5-0.2-1-0.6-1.5-1.3-1.5-4.8-1.4-5.9v-0.1c0-0.9 0.3-1.4 0.5-1.8 0.3-0.2 1.2-0.8 2-1.3l0.1-0.1c1.5-1.3 2-4.4 2.1-5 0.1-0.9 0.1-1.5 0.1-1.6 0-0.8-0.2-1.5-0.7-1.9l-0.4-0.5c-0.1 0-0.1-0.1-0.1-0.2l0.1-2.8c0-7.3-5.9-13.3-13.3-13.3-7.2 0-13.2 5.9-13.3 13.1 0 0.3-0.1 2.5-0.1 3 0 0.1 0 0.2-0.1 0.3l-0.5 0.6c-0.3 0.3-0.7 0.9-0.7 1.8 0 0 0 0.7 0.1 1.6 0.1 0.6 0.6 3.7 2.1 4.9v0.1c0.7 0.5 1.8 1.2 2 1.4 0.1 0.2 0.4 0.7 0.4 1.8v0.1c0.1 1.1 0.1 4.5-1.3 5.8-0.6 0.4-1 0.7-1.1 0.7l-13.1 6.2L24 73.6c-5.7-6.2-9.2-14.5-9.2-23.6C14.9 30.6 30.6 14.9 50 14.9zM50 85.1c-9.2 0-17.6-3.6-23.9-9.4l2.7-1.3 0.2-0.1 9.5-4.5c0.7-0.2 1.4-0.8 1.8-1.1 2.5-2.2 2.3-7 2.2-7.9 0-1.4-0.3-2.5-0.9-3.3-0.3-0.5-1.2-1.1-2.6-2-0.5-0.5-1-2.1-1.2-3.3-0.1-0.7-0.1-1.3-0.1-1.3v-0.2l0.6-0.7c0.4-0.4 0.5-1.1 0.6-1.5v-0.2c0 0 0.1-2.9 0.1-3.2 0.1-5.8 4.9-10.6 10.8-10.6 6 0 10.8 4.9 10.9 10.9l-0.1 3v0.1c0 0.4 0.2 1.1 0.6 1.5l0.5 0.6v0.1 0.1c0 0 0 0.5-0.1 1.3-0.2 1.2-0.7 2.8-1.2 3.3-1.8 1.1-2.4 1.6-2.6 1.9l-0.1 0.1c-0.6 1-0.9 2-0.9 3.2 0 1-0.3 5.7 2.3 8 0.3 0.3 1.1 0.8 1.8 1.1l10.8 5.1 2.1 1C67.6 81.6 59.2 85.1 50 85.1z" fill="#ff7300" data-fill-palette-color="accent"></path></svg></g></svg></g></svg></g></svg></g><g><path d="M0 123.6c0-68.262 55.338-123.6 123.6-123.6 49.374 0 91.987 28.951 111.788 70.803h-4.198c-19.519-39.7-60.364-67.023-107.59-67.023-66.175 0-119.82 53.645-119.82 119.82 0 66.175 53.645 119.82 119.82 119.82 47.227 0 88.072-27.323 107.59-67.023h4.198c-19.801 41.852-62.414 70.803-111.788 70.803-68.262 0-123.6-55.338-123.6-123.6z" fill="#ff7300" stroke="transparent" data-fill-palette-color="tertiary"></path></g></svg></g><defs></defs></svg><rect width="395.52" height="247.2" fill="none" stroke="none" visibility="hidden"></rect></g></svg></g></svg>